# xmcd
#
# Track frame offsets: 
#        150
#        14959
#        28762
#        43637
#        61375
#        82300
#        93677
#        108260
#        121415
#        148355
#
# Disc length: 2174 seconds
#
# Revision: 2
# Processed by: cddbd v1.5.1PL0 Copyright (c) Steve Scherf et al.
# Submitted via: ExactAudioCopy v0.95b3
#
DISCID=98087c0a
DTITLE=Dr. John - Zu Zu Man
DYEAR=1997
DGENRE=Blues
TTITLE0=Tipitina
TTITLE1=She's Just A Square
TTITLE2=Zu Zu Man
TTITLE3=Shoora
TTITLE4=Mean Cheatin' Woman
TTITLE5=Bald Headed
TTITLE6=A Little Closer to My Home
TTITLE7=I Pulled the Cover Off You Two Lovers
TTITLE8=Bring Your Love
TTITLE9=Make Your Own
EXTD=
EXTT0=
EXTT1=
EXTT2=
EXTT3=
EXTT4=
EXTT5=
EXTT6=
EXTT7=
EXTT8=
EXTT9=
PLAYORDER=
